<?xml version="1.0" standalone="no"?>
<!DOCTYPE svg PUBLIC "-//W3C//DTD SVG 20010904//EN"
 "http://www.w3.org/TR/2001/REC-SVG-20010904/DTD/svg10.dtd">
<svg version="1.0" xmlns="http://www.w3.org/2000/svg"
 width="200.000000" height="70.000000" viewBox="0 0 412.000000 270.000000"
 preserveAspectRatio="xMidYMid meet">

<g transform="translate(0.000000,284.000000) scale(0.100000,-0.100000)"
fill="white" stroke="none">
<path d="M554 2544 c-60 -21 -119 -77 -151 -142 l-28 -57 0 -460 c0 -447 1
-461 21 -506 41 -89 127 -160 216 -180 24 -6 725 -10 1692 -11 l1651 0 57 21
c73 28 140 95 170 169 22 56 23 66 25 472 1 256 -2 436 -8 470 -14 70 -47 129
-100 174 -83 71 52 66 -1818 65 -1451 0 -1692 -3 -1727 -15z m3272 -120 c-55
-10 -194 -13 -648 -12 -318 0 -581 -2 -585 -6 -3 -3 -1 -6 5 -6 7 0 12 -4 12
-9 0 -21 -207 -32 -219 -12 -8 13 -45 15 -128 7 -39 -4 -63 -2 -63 4 0 13
-157 13 -162 0 -5 -15 -268 -16 -278 0 -5 9 -19 11 -46 6 -28 -5 -35 -4 -24 3
10 8 -44 11 -177 10 -106 0 -193 -3 -193 -7 0 -4 -41 -7 -90 -7 -50 0 -90 2
-90 5 0 3 -115 6 -256 7 -300 3 -314 0 -355 -84 -24 -47 -24 -54 -29 -438 l-5
-390 -3 396 -2 397 28 53 c20 39 38 58 71 76 l44 23 1631 -1 c1413 -1 1622 -3
1562 -15z m187 -38 c24 -22 32 -31 18 -20 -33 27 -85 54 -106 54 -8 0 -15 4
-15 8 0 22 65 -4 103 -42z m-102 -85 c41 -41 40 -90 -2 -125 -40 -34 -71 -33
-114 5 -25 22 -35 39 -35 61 0 41 48 88 90 88 22 0 41 -9 61 -29z m-2706 -68
c209 -112 282 -324 181 -528 -41 -83 -85 -126 -173 -171 -52 -26 -70 -29 -170
-33 l-113 -3 0 90 c0 102 0 102 83 102 134 1 226 109 203 235 -8 40 -58 102
-93 116 -13 5 -82 11 -154 14 l-130 6 6 -98 c3 -54 2 -210 -2 -348 l-8 -250
-83 2 c-46 1 -90 4 -98 7 -12 5 -14 73 -14 440 l0 435 23 4 c12 3 130 4 262 4
225 -2 242 -3 280 -24z m1400 -149 c9 -9 15 -26 13 -38 -2 -16 -11 -22 -39
-24 -42 -4 -54 13 -39 53 11 29 41 33 65 9z m-738 -24 c64 -39 88 -111 58
-174 -25 -53 -53 -67 -145 -73 l-80 -6 0 -58 0 -59 -35 0 -35 0 0 195 0 195
103 0 c83 0 108 -4 134 -20z m1833 -165 c0 -102 0 -188 0 -192 0 -5 -17 -8
-37 -8 l-38 0 -3 193 -2 192 40 0 40 0 0 -185z m-336 149 c3 -9 6 -29 6 -45 0
-26 2 -28 30 -22 29 5 30 4 30 -31 0 -33 -2 -36 -30 -36 l-30 0 0 -75 0 -75
30 0 c23 0 31 -5 36 -24 9 -36 -2 -46 -50 -46 -33 0 -48 6 -67 26 -21 23 -24
34 -24 110 0 73 -2 84 -17 84 -14 0 -18 8 -18 35 0 29 4 35 21 35 19 0 21 5
17 40 -3 39 -3 40 28 40 20 0 34 -6 38 -16z m496 -34 l0 -40 40 0 c38 0 40 -2
40 -30 0 -28 -2 -30 -39 -30 l-39 0 -1 -56 c0 -72 10 -92 52 -96 28 -3 32 -7
35 -35 3 -33 3 -33 -43 -33 -87 0 -115 37 -115 150 0 61 -2 70 -18 70 -13 0
-19 9 -20 36 -3 34 -1 36 22 32 25 -5 26 -4 20 33 l-7 39 37 0 c35 0 36 -1 36
-40z m-1812 -58 l3 -23 30 26 c17 14 39 25 50 25 16 0 19 -7 19 -40 0 -39 -1
-40 -33 -40 -51 0 -57 -13 -57 -117 l0 -93 -34 0 c-43 0 -46 10 -46 168 l0
123 33 -3 c25 -2 33 -8 35 -26z m352 9 c102 -54 106 -191 8 -251 -46 -28 -130
-27 -169 1 -46 32 -72 93 -65 148 6 47 42 95 81 111 36 15 109 11 145 -9z
m489 -17 c24 -21 42 -48 46 -67 4 -18 9 -40 11 -49 5 -16 -4 -18 -100 -18
-108 0 -125 -7 -83 -34 42 -27 73 -30 89 -7 l15 21 27 -21 c34 -27 33 -35 -6
-59 -46 -28 -122 -27 -165 3 -71 48 -84 158 -27 219 36 37 57 47 111 47 36 1
50 -5 82 -35z m302 8 l31 -28 -20 -24 c-20 -25 -21 -25 -50 -7 -39 22 -53 22
-87 -5 -23 -18 -26 -26 -21 -56 3 -19 13 -43 22 -53 18 -20 78 -26 89 -9 11
18 44 11 56 -12 10 -19 8 -25 -17 -45 -22 -18 -42 -23 -84 -23 -52 0 -59 3
-95 40 -33 34 -39 47 -42 92 -3 41 1 60 16 86 47 74 144 96 202 44z m-582
-157 c1 -114 -2 -145 -15 -163 -23 -33 -57 -43 -94 -30 -26 8 -31 15 -26 32 3
11 6 24 6 28 0 4 14 5 30 2 l30 -6 0 150 0 151 28 3 c17 2 30 -3 34 -12 4 -8
7 -78 7 -155z"/>
<path d="M1870 2401 c0 -10 77 -7 87 3 4 3 -15 6 -40 6 -26 0 -47 -4 -47 -9z"/>
<path d="M1710 1946 c0 -62 2 -66 25 -72 13 -3 44 0 67 7 39 13 43 17 46 50 4
47 -23 70 -88 77 l-50 5 0 -67z"/>
<path d="M2282 1904 c-20 -9 -43 -61 -35 -81 20 -58 79 -79 128 -47 30 20 34
71 8 103 -18 21 -76 36 -101 25z"/>
<path d="M2764 1900 c-12 -4 -24 -15 -27 -24 -5 -14 3 -16 58 -16 50 0 65 3
65 15 0 29 -52 43 -96 25z"/>
<path d="M1460 1031 c-48 -15 -87 -40 -123 -80 -43 -47 -52 -75 -52 -153 1
-47 6 -65 31 -100 85 -121 230 -143 349 -53 42 33 86 115 87 163 2 137 -162
262 -292 223z m124 -122 c32 -25 56 -69 56 -102 0 -54 -70 -107 -141 -107 -56
0 -109 50 -109 104 0 44 21 89 52 110 33 23 109 21 142 -5z"/>
<path d="M1994 1031 c-2 -2 -4 -69 -4 -148 0 -130 -2 -145 -20 -163 -25 -25
-66 -25 -106 -1 l-32 19 -26 -27 c-36 -37 -33 -56 16 -91 33 -24 51 -30 92
-30 65 0 133 33 163 79 22 32 23 44 23 200 l0 166 -51 0 c-28 0 -52 -2 -55 -4z"/>
<path d="M2298 1032 l-108 -3 0 -217 0 -217 157 3 c87 1 164 5 171 7 7 3 12
22 12 50 l0 45 -114 0 -114 0 -4 30 c-3 17 -2 32 0 35 3 3 52 5 109 5 l103 0
0 39 0 39 -75 7 c-42 4 -88 5 -104 2 -26 -5 -29 -3 -35 25 -3 17 -6 34 -6 39
0 5 54 9 120 9 l120 0 0 50 0 50 -49 0 c-27 0 -55 1 -63 3 -7 1 -61 1 -120 -1z"/>
<path d="M2736 1020 c-148 -58 -189 -217 -90 -347 73 -96 230 -105 329 -20
l39 34 -42 27 -43 27 -26 -21 c-34 -27 -107 -27 -150 0 -93 56 -71 174 39 209
44 14 70 8 116 -26 l33 -25 20 26 c11 14 27 26 35 26 23 0 16 16 -23 50 -71
63 -146 75 -237 40z"/>
<path d="M3056 1025 c-3 -9 -6 -34 -6 -56 l0 -39 59 0 58 0 7 -77 c3 -42 6
-116 6 -165 l0 -88 44 0 c31 0 46 5 50 16 3 9 6 83 6 165 l0 149 58 0 57 0 -3
50 -4 50 -133 0 c-73 0 -146 3 -162 6 -23 4 -32 2 -37 -11z"/>
<path d="M3820 983 l0 -53 60 0 60 0 0 -168 0 -168 53 6 52 5 3 163 2 162 65
0 65 0 0 50 0 49 -180 3 -180 3 0 -52z"/>
<path d="M410 816 l0 -214 48 -4 c26 -3 50 -3 55 -1 4 2 7 28 7 58 l0 53 73 7
c130 12 197 75 182 172 -8 55 -65 116 -122 132 -21 6 -84 11 -140 11 l-103 0
0 -214z m236 91 c21 -19 26 -29 20 -50 -8 -33 -28 -44 -94 -53 l-52 -7 0 67 0
66 49 0 c38 0 57 -6 77 -23z"/>
<path d="M846 953 c-8 -97 -8 -291 0 -332 6 -30 9 -31 55 -31 l49 0 0 70 0 70
39 0 c37 0 41 -3 87 -71 48 -69 50 -71 84 -65 19 3 41 6 48 6 22 0 12 31 -27
83 l-40 52 34 30 c37 34 61 100 51 139 -9 36 -64 96 -103 112 -21 9 -74 14
-151 14 l-119 0 -7 -77z m242 -39 c26 -18 29 -56 6 -78 -11 -11 -35 -16 -80
-16 l-64 0 0 55 0 55 58 0 c36 0 66 -6 80 -16z"/>
<path d="M3650 815 l0 -215 50 0 50 0 0 215 0 215 -50 0 -50 0 0 -215z"/>
<path d="M405 429 c-9 -27 4 -179 15 -179 5 0 15 -3 24 -6 13 -5 16 2 16 34 0
37 3 41 31 47 37 8 49 -4 49 -53 0 -26 4 -33 18 -30 15 3 17 17 20 106 2 95 1
102 -16 102 -15 0 -21 -10 -26 -40 -6 -38 -8 -40 -41 -40 -29 0 -35 4 -35 21
0 50 -42 80 -55 38z"/>
<path d="M697 413 c-24 -42 -56 -129 -57 -155 0 -30 37 -22 48 10 9 25 14 28
45 24 25 -3 38 -11 46 -28 11 -25 15 -27 43 -16 15 6 14 13 -10 72 -59 141
-77 156 -115 93z m43 -53 c13 -24 5 -41 -15 -33 -16 6 -21 53 -5 53 5 0 14 -9
20 -20z"/>
<path d="M908 358 c-3 -97 6 -126 36 -115 12 5 15 14 10 32 -5 22 -3 25 20 25
35 0 83 25 96 49 16 30 12 50 -15 76 -20 21 -34 25 -84 25 l-60 0 -3 -92z
m110 20 c-2 -17 -11 -24 -30 -26 -24 -3 -28 0 -28 22 0 22 4 26 31 26 26 0 30
-3 27 -22z"/>
<path d="M1142 345 c3 -97 4 -100 27 -103 21 -3 23 -1 19 27 -4 28 -2 30 35
37 77 13 111 78 63 123 -20 19 -33 22 -85 19 l-62 -3 3 -100z m98 50 c18 -21
5 -45 -25 -45 -21 0 -25 5 -25 30 0 23 5 30 19 30 10 0 24 -7 31 -15z"/>
<path d="M1356 428 c4 -13 18 -39 31 -60 14 -20 27 -55 30 -77 3 -23 9 -41 13
-41 5 0 15 -3 24 -6 13 -5 16 2 16 38 0 33 8 56 35 96 20 29 33 57 30 62 -13
21 -43 9 -61 -25 -10 -19 -24 -35 -31 -35 -7 0 -19 16 -27 35 -12 27 -21 35
-41 35 -23 0 -25 -3 -19 -22z"/>
<path d="M1707 443 c-4 -3 -7 -51 -7 -106 l0 -99 67 4 c61 4 68 7 95 38 39 48
39 101 -1 141 -26 25 -37 29 -89 29 -32 0 -62 -3 -65 -7z m113 -63 c23 -23 24
-33 10 -61 -7 -12 -21 -19 -40 -19 -29 0 -30 1 -30 50 0 43 3 50 20 50 11 0
29 -9 40 -20z"/>
<path d="M1957 443 c-9 -9 -9 -175 1 -188 4 -5 37 -10 75 -10 64 0 67 1 67 24
0 22 -3 23 -45 19 -42 -5 -45 -4 -45 18 0 21 5 24 41 24 33 0 40 3 37 18 -2
12 -14 18 -40 20 -26 2 -37 8 -41 24 -5 19 -2 20 44 16 46 -5 49 -4 49 18 0
23 -3 24 -68 24 -38 0 -72 -3 -75 -7z"/>
<path d="M2155 428 c14 -45 67 -163 80 -177 8 -7 19 -11 27 -9 13 6 89 172 88
196 0 6 -11 12 -25 12 -14 0 -25 -6 -25 -12 0 -7 -11 -35 -24 -63 l-24 -50
-17 40 c-10 22 -21 50 -26 63 -6 15 -17 22 -34 22 -23 0 -25 -3 -20 -22z"/>
<path d="M2410 345 l0 -105 76 0 c72 0 75 1 72 23 -3 19 -10 22 -50 25 -63 4
-67 29 -5 34 34 2 42 7 42 23 0 16 -8 21 -42 23 -49 4 -63 32 -15 32 47 0 72
11 72 31 0 17 -8 19 -75 19 l-75 0 0 -105z"/>
<path d="M2630 351 l0 -98 38 -7 c20 -3 52 -6 70 -6 27 0 32 4 32 24 0 23 -5
25 -47 28 l-48 3 -3 70 c-3 63 -11 84 -34 85 -5 0 -8 -44 -8 -99z"/>
<path d="M2843 415 c-33 -33 -35 -39 -30 -82 12 -107 133 -129 182 -33 24 46
19 78 -19 116 -47 47 -86 46 -133 -1z m99 -32 c24 -21 23 -44 -2 -71 -25 -26
-37 -27 -62 -5 -22 20 -23 56 -2 77 20 21 43 20 66 -1z"/>
<path d="M3070 350 l0 -100 25 0 c21 0 24 4 20 23 -5 20 -1 24 37 34 24 6 54
23 68 38 23 24 24 28 9 53 -20 36 -54 52 -111 52 l-48 0 0 -100z m95 25 c0
-30 -39 -27 -43 3 -3 20 0 23 20 20 15 -2 23 -10 23 -23z"/>
<path d="M3277 437 c-3 -7 -2 -54 0 -104 5 -75 8 -90 22 -89 12 1 17 14 21 51
l5 50 18 -32 c10 -18 23 -33 29 -33 15 0 37 31 38 53 0 10 5 15 10 12 6 -3 10
-28 10 -56 0 -43 3 -49 20 -49 20 0 21 5 18 103 -3 100 -3 102 -27 102 -18 0
-29 -10 -44 -39 l-20 -39 -24 29 c-13 16 -28 35 -34 42 -13 16 -36 16 -42 -1z"/>
<path d="M3530 420 c0 -15 3 -60 6 -101 l7 -74 73 -3 c43 -2 74 1 74 7 0 31
-14 41 -60 41 -43 0 -48 2 -43 19 4 15 15 21 47 23 28 2 41 8 41 18 0 11 -13
16 -47 18 -34 2 -48 7 -48 18 0 10 13 14 50 14 46 0 50 2 50 24 0 23 -2 24
-75 23 -75 0 -75 0 -75 -27z"/>
<path d="M3757 443 c-4 -3 -7 -48 -7 -100 l0 -93 26 0 c25 0 26 1 22 60 -1 32
0 56 3 52 77 -97 93 -112 115 -112 l25 0 -3 98 c-3 91 -4 97 -25 100 -20 3
-22 -1 -25 -58 l-3 -62 -43 61 c-39 56 -66 73 -85 54z"/>
<path d="M3996 435 c-11 -29 -7 -35 23 -35 35 0 41 -13 41 -90 0 -56 8 -70 41
-70 5 0 9 36 9 80 l0 80 31 0 c26 0 30 3 27 23 -3 20 -9 22 -84 25 -68 2 -83
0 -88 -13z"/>
</g>
</svg>
