<?xml version="1.0" standalone="no"?>
<!DOCTYPE svg PUBLIC "-//W3C//DTD SVG 20010904//EN"
 "http://www.w3.org/TR/2001/REC-SVG-20010904/DTD/svg10.dtd">
<svg version="1.0" xmlns="http://www.w3.org/2000/svg"
 width="64" height="64" viewBox="0 0 1024.000000 1024.000000"
 preserveAspectRatio="xMidYMid meet">

<g transform="translate(0.000000,1024.000000) scale(0.100000,-0.100000)"
fill="#000000" stroke="none">
<path d="M4000 8731 c-138 -37 -271 -118 -353 -213 -59 -69 -122 -194 -150
-299 l-22 -84 0 -1190 0 -1190 23 -80 c12 -44 36 -108 53 -141 60 -120 216
-262 344 -312 139 -55 91 -53 1505 -50 l1305 3 58 22 c174 66 328 200 398 347
72 149 69 87 69 1401 0 1152 -1 1182 -20 1265 -61 253 -237 438 -493 518 -47
15 -186 17 -1352 19 -1210 1 -1304 0 -1365 -16z m2632 -206 c54 -7 144 -49
204 -95 53 -40 133 -141 155 -196 40 -102 40 -92 39 -1044 0 -503 -5 -919 -9
-923 -5 -5 -12 -4 -15 2 -4 6 -3 11 2 11 6 0 10 27 9 60 0 33 -4 60 -10 60 -5
0 -7 20 -6 44 3 29 0 42 -7 39 -6 -2 -17 -57 -24 -123 -7 -65 -16 -119 -19
-118 -3 0 -21 0 -38 -1 -26 -1 -33 -5 -33 -21 0 -13 -7 -20 -20 -20 -13 0 -20
-7 -20 -20 0 -13 -7 -20 -20 -20 -13 0 -20 -7 -20 -20 0 -13 -7 -20 -20 -20
-13 0 -20 -7 -20 -20 0 -23 -29 -27 -48 -8 -15 15 -16 3 -2 -23 6 -10 7 -19 3
-19 -5 0 -9 -24 -9 -54 -1 -68 -28 -126 -86 -187 -37 -40 -52 -48 -106 -59
-34 -7 -65 -10 -69 -6 -3 3 5 6 18 6 65 1 173 80 209 155 35 72 26 171 -21
249 -10 16 -16 33 -13 38 3 5 2 7 -3 6 -12 -4 -84 47 -78 55 3 4 2 5 -1 3 -3
-3 -24 2 -46 10 -86 30 -183 11 -255 -50 -78 -66 -110 -213 -66 -306 25 -56
106 -137 144 -145 37 -8 37 -22 -1 -30 -20 -4 -37 -1 -52 9 -12 9 -36 16 -53
16 -29 0 -32 4 -48 60 -14 47 -23 60 -38 60 -16 0 -19 7 -19 40 0 22 -4 40
-10 40 -6 0 -10 27 -10 60 0 54 -2 60 -21 60 -16 0 -20 5 -16 20 3 13 0 20 -8
20 -7 0 -15 5 -17 12 -3 8 -26 4 -77 -15 -40 -15 -75 -27 -79 -27 -11 1 42 29
55 30 6 0 42 14 80 32 37 17 82 37 99 43 50 19 220 176 210 194 -4 7 -1 8 8 5
22 -8 77 82 132 217 44 107 46 119 51 233 3 67 3 119 0 116 -3 -3 -11 -36 -17
-73 -13 -82 -55 -176 -115 -255 -53 -70 -220 -231 -261 -252 -16 -8 -36 -20
-44 -26 -22 -18 -121 -68 -171 -86 -81 -30 -123 -37 -264 -42 -77 -3 -215 -8
-306 -12 -147 -5 -167 -4 -172 10 -4 11 -1 16 11 17 9 0 139 4 287 8 362 11
436 30 625 156 201 134 340 314 401 520 22 73 24 98 24 280 -1 175 -4 211 -24
290 -34 135 -120 293 -221 407 -97 111 -296 232 -467 285 l-88 27 -624 4
c-458 2 -632 0 -652 -8 -16 -7 -49 -34 -74 -61 l-45 -48 0 -965 0 -966 -22 -4
c-118 -25 -218 -51 -239 -62 -15 -7 -86 -23 -159 -34 -131 -20 -165 -34 -154
-65 7 -18 10 -254 3 -249 -8 5 -26 76 -35 139 l-7 50 -11 -45 c-15 -61 -17
166 -14 1340 l3 925 42 86 c29 59 59 102 99 142 73 73 126 103 217 126 68 18
133 19 1312 15 682 -2 1257 -6 1277 -9z m-857 -503 c187 -70 317 -160 413
-287 103 -137 158 -288 169 -466 22 -372 -169 -679 -508 -816 -106 -43 -148
-47 -509 -47 l-345 -1 4 -252 4 -251 -31 -16 c-25 -13 -66 -16 -216 -16 -194
0 -226 6 -244 44 -16 33 -25 2109 -9 2125 9 9 144 11 612 9 593 -4 601 -4 660
-26z m733 -1883 c37 -29 57 -63 66 -108 8 -42 -8 -102 -33 -125 -18 -16 -19
-15 -33 29 -10 28 -11 42 -4 36 13 -11 16 123 3 135 -4 4 -44 8 -88 10 l-81 2
2 -47 c4 -84 0 -181 -7 -181 -20 0 -43 65 -43 121 0 78 20 126 62 144 47 22
119 14 156 -16z m-2188 -142 l0 -153 36 -43 c70 -81 77 -82 381 -75 148 3 283
10 301 16 18 5 46 21 63 35 16 14 32 23 35 21 11 -11 -10 -36 -56 -66 l-49
-32 -299 0 -299 0 -40 29 c-22 16 -48 31 -59 35 -12 4 -20 15 -20 29 -3 316
-9 376 -33 337 -6 -8 -13 -11 -18 -7 -9 10 16 27 40 27 15 0 17 -14 17 -153z
m-33 91 c-3 -8 -6 -5 -6 6 -1 11 2 17 5 13 3 -3 4 -12 1 -19z m1521 -24 c-17
-9 -25 -20 -22 -29 4 -9 0 -15 -10 -15 -9 0 -16 -4 -16 -10 0 -5 -18 -10 -40
-10 l-40 0 0 -40 0 -40 -40 0 c-33 0 -40 3 -40 20 0 13 -7 20 -20 20 -13 0
-20 -7 -20 -20 0 -13 -7 -20 -20 -20 -13 0 -20 -7 -20 -20 0 -18 -7 -20 -79
-20 l-79 0 -4 73 c-3 39 -3 75 -1 80 6 11 163 9 163 -3 0 -5 17 -11 38 -11
l37 -2 -35 -7 c-31 -7 -29 -8 23 -9 51 -1 57 1 57 19 0 18 -5 20 -57 16 -57
-5 -57 -5 -13 4 25 5 85 14 133 19 49 5 92 12 95 15 3 3 12 6 21 6 10 -1 5 -7
-11 -16z m-631 -86 c-2 -18 -4 -4 -4 32 0 36 2 50 4 33 2 -18 2 -48 0 -65z
m1288 62 c-39 -26 -65 -26 -65 0 0 17 7 20 48 20 l47 0 -30 -20z m13 -113 c31
-54 24 -67 -37 -67 -25 0 -32 3 -27 15 3 9 0 15 -9 15 -19 0 -14 68 6 81 24
16 40 6 67 -44z m-1311 -79 c-3 -7 -5 -2 -5 12 0 14 2 19 5 13 2 -7 2 -19 0
-25z m1781 -108 c-7 -10 -14 -18 -15 -16 -6 6 9 36 18 36 5 0 4 -9 -3 -20z
m-28 -60 c-11 -15 -20 -31 -20 -35 0 -16 -68 -88 -114 -120 -54 -36 -170 -70
-201 -58 -17 6 50 36 143 64 17 5 32 15 32 21 0 6 3 9 6 5 7 -7 84 72 84 85 0
5 11 13 25 18 14 5 25 17 25 28 0 24 8 32 26 25 11 -4 10 -11 -6 -33z m-3132
5 c-3 -3 -9 2 -12 12 -6 14 -5 15 5 6 7 -7 10 -15 7 -18z m22 -25 c0 -5 -2
-10 -4 -10 -3 0 -8 5 -11 10 -3 6 -1 10 4 10 6 0 11 -4 11 -10z m24 -36 c3 -8
2 -12 -4 -9 -6 3 -10 10 -10 16 0 14 7 11 14 -7z m41 -48 c13 -13 34 -31 47
-40 12 -9 19 -18 15 -22 -3 -3 -27 14 -54 40 -26 25 -44 46 -40 46 4 0 19 -11
32 -24z"/>
<path d="M6930 6380 c0 -11 5 -20 10 -20 6 0 10 9 10 20 0 11 -4 20 -10 20 -5
0 -10 -9 -10 -20z"/>
<path d="M6900 6295 c0 -9 9 -15 25 -15 16 0 25 6 25 15 0 9 -9 15 -25 15 -16
0 -25 -6 -25 -15z"/>
<path d="M4996 7580 c0 -3 0 -162 2 -353 l3 -348 24 -9 c12 -5 126 -12 251
-16 270 -8 317 0 415 72 105 78 159 180 159 302 0 122 -81 247 -202 313 l-63
34 -165 2 c-91 2 -223 4 -293 6 -71 1 -130 0 -131 -3z m547 -171 c48 -13 102
-61 129 -112 30 -60 22 -144 -18 -194 -57 -70 -82 -76 -295 -77 l-189 -1 0 91
c0 50 -3 139 -7 197 l-6 107 174 0 c96 0 191 -5 212 -11z"/>
<path d="M5680 6033 c0 -7 9 -13 20 -13 11 0 20 4 20 9 0 5 10 12 23 14 12 2
3 4 -20 3 -27 -1 -43 -6 -43 -13z"/>
<path d="M3804 4742 c-129 -45 -243 -145 -298 -262 -27 -58 -30 -75 -30 -155
2 -189 81 -304 271 -393 52 -24 70 -27 164 -27 l106 0 96 48 c141 70 220 165
248 299 36 168 -74 376 -241 455 -111 53 -226 66 -316 35z m233 -208 c139 -80
167 -263 56 -371 -127 -123 -320 -86 -403 78 -25 48 -25 112 0 166 25 56 100
128 153 147 56 20 139 12 194 -20z"/>
<path d="M4854 4751 c-2 -2 -4 -133 -4 -289 l0 -285 -24 -32 c-51 -67 -106
-69 -226 -8 l-72 35 -59 -58 c-32 -32 -59 -64 -59 -71 0 -19 81 -80 146 -110
51 -23 72 -27 154 -28 90 0 99 2 158 34 71 39 134 104 166 171 20 42 21 65 24
322 2 181 -1 284 -7 297 -9 17 -24 20 -102 23 -50 2 -93 1 -95 -1z"/>
<path d="M5215 4742 c-7 -19 -6 -797 1 -816 6 -15 40 -16 307 -16 198 1 306 5
314 12 15 13 18 164 3 173 -5 3 -101 6 -213 5 l-205 0 -6 31 c-3 17 -6 46 -6
64 0 31 2 33 46 39 26 3 111 6 190 6 l144 0 0 75 c0 52 -4 77 -12 80 -16 5
-210 14 -300 15 l-68 0 0 75 0 75 209 0 c181 0 210 2 215 16 3 9 6 51 6 95 l0
78 -310 3 c-251 2 -311 0 -315 -10z"/>
<path d="M6265 4741 c-182 -65 -281 -166 -315 -322 -27 -121 16 -265 111 -373
135 -153 396 -183 578 -66 57 36 105 85 97 98 -9 14 -133 102 -144 102 -5 0
-17 -10 -28 -21 -29 -33 -114 -69 -161 -69 -135 0 -263 119 -263 245 0 145
144 255 303 231 27 -4 70 -23 106 -46 l60 -39 42 57 c24 31 46 59 51 60 28 12
-17 62 -92 105 -102 57 -246 73 -345 38z"/>
<path d="M6965 4753 c-119 -2 -171 -7 -177 -16 -11 -18 -10 -135 2 -158 10
-17 22 -19 115 -19 l105 0 1 -222 c1 -289 9 -406 29 -419 22 -14 144 -6 165
11 16 13 17 35 10 281 -4 146 -4 285 0 307 l7 42 106 0 c59 0 114 4 121 9 10
6 16 32 19 73 3 51 0 68 -14 85 -18 21 -29 22 -169 26 -82 2 -226 2 -320 0z"/>
<path d="M8047 4753 c-29 -3 -40 -10 -47 -29 -11 -28 -14 -724 -4 -762 8 -30
49 -50 116 -58 47 -5 55 -3 73 16 19 22 20 34 17 399 -1 207 -4 385 -7 397 -2
11 -16 26 -30 32 -26 12 -43 12 -118 5z"/>
<path d="M8398 4753 c-78 -3 -88 -6 -94 -25 -9 -30 -9 -141 0 -156 5 -8 43
-12 122 -12 l114 0 0 -310 0 -310 27 -17 c19 -12 46 -18 86 -18 51 1 62 4 80
25 19 24 20 35 14 331 l-5 307 97 -5 c121 -6 133 1 139 83 3 47 0 64 -15 82
-18 23 -22 24 -248 26 -127 2 -269 1 -317 -1z"/>
<path d="M1833 4739 c-10 -10 -13 -103 -13 -395 l0 -383 23 -27 c19 -22 34
-28 81 -32 85 -7 96 7 96 120 l0 88 103 0 c221 0 347 64 392 199 24 72 18 180
-14 244 -32 66 -101 133 -169 165 -55 26 -63 27 -272 30 -163 2 -218 0 -227
-9z m417 -194 c49 -25 70 -66 70 -132 0 -53 -3 -62 -31 -89 -30 -28 -33 -29
-150 -32 l-119 -4 0 136 0 136 100 0 c70 0 110 -5 130 -15z"/>
<path d="M2670 4741 c-13 -9 -15 -65 -15 -407 l0 -396 25 -20 c21 -17 35 -20
90 -15 93 7 103 22 98 149 l-3 98 68 2 c37 0 71 1 76 2 6 1 42 -48 81 -109 39
-60 79 -117 89 -126 16 -13 33 -14 107 -7 49 5 92 12 96 16 7 7 -25 58 -137
216 -39 54 -42 66 -19 66 29 0 101 68 125 117 16 33 23 66 23 112 2 119 -66
221 -183 279 -55 27 -58 27 -281 30 -134 1 -231 -2 -240 -7z m409 -191 c79
-22 112 -91 76 -160 -20 -39 -70 -51 -196 -48 l-101 3 -2 108 -3 107 96 0 c53
0 112 -4 130 -10z"/>
<path d="M4080 3636 c0 -8 18 -45 40 -82 32 -56 40 -78 40 -120 0 -50 1 -51
30 -51 29 0 29 2 24 37 -5 30 2 51 39 122 37 70 43 88 30 92 -25 10 -29 7 -59
-39 -15 -25 -32 -45 -36 -45 -4 0 -20 19 -34 43 -15 23 -32 45 -38 49 -18 12
-36 9 -36 -6z"/>
<path d="M7519 3563 c0 -86 0 -87 -17 -63 -64 92 -106 140 -123 140 -19 0 -19
-7 -17 -127 3 -124 4 -128 26 -131 21 -3 22 -1 22 78 l0 82 44 -58 c24 -33 55
-70 70 -84 40 -36 46 -16 44 125 -3 116 -4 120 -25 123 -22 3 -23 1 -24 -85z"/>
<path d="M3513 3510 l-2 -130 24 0 c20 0 25 5 26 28 1 43 12 57 47 58 73 4
114 61 86 121 -20 42 -47 53 -122 53 l-57 0 -2 -130z m131 58 c16 -26 -4 -52
-43 -56 -24 -3 -31 1 -31 15 0 10 -3 28 -6 41 -6 22 -4 23 31 20 23 -2 42 -10
49 -20z"/>
<path d="M3813 3543 c4 -54 7 -113 7 -130 0 -28 3 -33 25 -33 22 0 25 4 25 39
0 38 1 39 44 45 48 8 71 27 81 69 18 71 -25 107 -126 107 l-62 0 6 -97z m111
41 c23 -9 21 -61 -3 -74 -35 -18 -48 -12 -54 27 -4 20 -4 40 -1 45 6 9 36 11
58 2z"/>
<path d="M4910 3511 l0 -129 85 0 c77 0 85 2 85 19 0 22 -6 25 -70 34 -39 5
-46 9 -48 30 -2 24 1 25 49 25 43 0 50 3 47 18 -2 13 -15 18 -51 20 -46 3 -48
4 -45 30 3 25 7 27 53 30 48 3 65 13 65 40 0 9 -24 12 -85 12 l-85 0 0 -129z"/>
<path d="M5185 3618 c4 -13 25 -70 46 -127 21 -58 39 -106 39 -108 0 -2 9 -3
19 -3 14 0 25 14 39 53 11 28 35 83 52 121 25 55 29 71 18 77 -25 16 -48 10
-48 -13 0 -13 -13 -52 -29 -87 l-29 -64 -33 87 c-28 75 -35 86 -56 86 -21 0
-23 -4 -18 -22z"/>
<path d="M5520 3511 l0 -129 83 1 c75 2 82 4 82 22 0 17 -8 20 -57 23 -57 3
-58 4 -58 32 0 29 2 30 45 30 38 0 45 3 45 20 0 17 -7 20 -44 20 -41 0 -44 2
-48 30 l-4 29 60 3 c53 3 61 6 61 23 0 18 -8 20 -82 23 l-83 3 0 -130z"/>
<path d="M5810 3578 c0 -35 3 -93 7 -130 l6 -68 78 0 c78 0 79 0 79 25 0 24
-3 25 -60 25 l-60 0 0 105 0 105 -25 0 c-24 0 -25 -2 -25 -62z"/>
<path d="M6133 3620 c-41 -24 -63 -67 -63 -121 0 -35 6 -48 39 -80 48 -49 93
-53 141 -13 81 69 77 174 -9 219 -40 20 -69 19 -108 -5z m92 -55 c36 -35 35
-96 -1 -124 -36 -28 -48 -27 -79 11 -22 26 -26 39 -21 66 11 69 58 91 101 47z"/>
<path d="M6717 3633 c-4 -3 -7 -62 -7 -130 0 -113 2 -124 18 -121 14 3 18 17
22 78 5 74 5 75 22 50 9 -14 22 -37 29 -52 7 -16 16 -28 21 -28 4 0 23 24 41
53 l32 52 5 -74 c5 -74 13 -88 39 -72 11 7 11 31 5 127 -8 108 -11 119 -29
122 -15 1 -29 -13 -56 -58 l-36 -61 -34 53 c-41 65 -56 78 -72 61z"/>
<path d="M7070 3515 l0 -125 86 0 c83 0 85 1 82 23 -3 19 -10 22 -60 25 -57 3
-58 4 -58 32 0 28 2 29 53 32 28 2 52 8 52 13 0 6 -24 11 -52 13 -29 2 -53 6
-53 10 0 4 -3 17 -6 30 -6 21 -4 22 54 22 45 0 61 4 66 16 11 28 -4 34 -85 34
l-79 0 0 -125z"/>
<path d="M7670 3615 c0 -22 4 -25 40 -25 l40 0 0 -95 c0 -78 3 -97 16 -102 26
-10 34 16 34 110 l0 87 35 0 c31 0 35 3 35 25 l0 25 -100 0 -100 0 0 -25z"/>
<path d="M2860 3505 c0 -125 0 -126 23 -123 19 3 22 9 22 48 0 53 7 60 63 60
l42 0 0 -55 c0 -52 1 -55 25 -55 l25 0 0 125 0 125 -25 0 c-23 0 -25 -4 -25
-44 0 -47 -11 -56 -75 -56 -29 0 -30 1 -30 47 0 42 -3 48 -22 51 -23 3 -23 2
-23 -123z"/>
<path d="M3253 3613 c-3 -10 -19 -52 -35 -93 -15 -41 -31 -89 -34 -107 -6 -30
-4 -33 20 -33 21 0 26 5 26 24 0 33 22 48 67 44 35 -3 39 -6 47 -40 7 -27 15
-38 28 -38 33 0 30 25 -16 141 -39 101 -48 114 -70 117 -18 2 -28 -2 -33 -15z
m52 -116 c7 -26 5 -28 -16 -25 -18 2 -23 8 -21 23 2 11 6 38 10 60 l6 40 6
-35 c4 -19 11 -48 15 -63z"/>
<path d="M4580 3511 l0 -118 31 -7 c69 -14 90 -8 135 38 39 38 44 49 44 87 0
80 -49 119 -150 119 l-60 0 0 -119z m107 69 c25 0 53 -43 53 -81 0 -45 -27
-69 -77 -69 l-33 0 0 81 c0 79 1 81 23 75 12 -3 27 -6 34 -6z"/>
<path d="M6420 3506 c0 -123 0 -124 24 -128 23 -5 25 -2 28 35 3 39 5 40 51
52 26 7 56 20 67 30 28 25 26 76 -5 109 -22 23 -31 26 -95 26 l-70 0 0 -124z
m108 72 c19 -19 14 -56 -9 -68 -33 -18 -49 -5 -49 40 0 35 3 40 23 40 13 0 28
-5 35 -12z"/>
<path d="M2030 3350 c0 -10 358 -3 369 6 2 2 -80 4 -182 4 -121 0 -187 -4
-187 -10z"/>
<path d="M8362 3352 c-13 -4 54 -8 147 -8 94 -1 168 3 165 7 -6 10 -277 10
-312 1z"/>
<path d="M3173 3112 c-60 -123 -86 -191 -79 -209 3 -7 19 -13 35 -13 26 0 31
4 36 34 7 37 28 46 106 46 36 0 39 -3 58 -45 19 -44 21 -45 48 -33 15 7 29 13
31 14 4 2 -61 151 -101 230 -32 63 -52 85 -75 84 -4 -1 -31 -49 -59 -108z m91
-19 c3 -16 8 -37 11 -49 6 -18 2 -20 -34 -20 -23 1 -41 5 -41 9 0 15 40 87 49
87 5 0 11 -12 15 -27z"/>
<path d="M4045 3211 c-3 -6 19 -58 50 -117 44 -85 55 -116 55 -154 0 -45 1
-48 30 -52 17 -3 32 -2 35 0 3 3 5 33 5 68 0 54 4 68 33 110 37 54 67 108 67
122 0 13 -52 34 -60 25 -4 -4 -13 -24 -19 -43 -6 -19 -22 -48 -35 -64 l-23
-30 -37 66 c-23 42 -45 68 -59 72 -30 8 -35 8 -42 -3z"/>
<path d="M4517 3205 c-2 -5 -1 -79 1 -162 l4 -153 76 0 c87 0 145 22 187 72
21 24 25 40 25 89 0 54 -3 62 -36 99 -22 24 -50 43 -73 49 -55 14 -180 18
-184 6z m191 -87 c68 -73 37 -147 -67 -164 l-41 -7 0 35 c0 19 -3 63 -6 97
l-7 61 50 0 c38 0 54 -5 71 -22z"/>
<path d="M4966 3212 l-99 -3 7 -61 c3 -33 6 -106 6 -162 l0 -101 105 0 c91 0
106 2 111 18 3 9 2 26 -1 37 -6 17 -15 20 -76 20 l-69 0 0 35 0 35 60 0 60 0
0 30 0 30 -65 0 c-62 0 -65 1 -65 24 0 16 7 26 23 30 37 10 92 7 105 -6 9 -9
12 -3 12 29 0 23 -3 43 -7 45 -5 2 -52 2 -107 0z"/>
<path d="M5145 3211 c-8 -14 125 -322 142 -328 20 -8 38 12 52 59 7 24 33 90
57 147 27 63 41 108 36 113 -5 5 -22 8 -36 6 -24 -3 -30 -12 -51 -73 -13 -38
-30 -85 -37 -102 l-14 -33 -39 101 c-30 77 -45 103 -63 110 -30 11 -39 11 -47
0z"/>
<path d="M6152 3209 c-40 -12 -119 -88 -128 -124 -10 -39 32 -141 68 -167 32
-22 101 -34 142 -24 52 13 156 127 156 171 0 11 -14 42 -30 69 -47 73 -121
100 -208 75z m107 -73 c30 -16 51 -53 51 -91 0 -46 -108 -107 -151 -85 -32 18
-59 62 -59 97 0 73 86 116 159 79z"/>
<path d="M2752 3053 l3 -158 33 -3 32 -3 0 69 0 70 63 4 c34 3 65 4 68 2 4 -2
10 -38 14 -80 5 -61 10 -74 22 -70 8 3 21 6 29 6 11 0 14 29 14 161 l0 160
-32 -3 c-33 -3 -33 -4 -36 -60 -3 -50 -6 -57 -27 -62 -32 -8 -106 4 -110 18
-2 6 -6 32 -10 59 -6 44 -8 47 -36 47 l-30 0 3 -157z"/>
<path d="M3460 3050 l0 -160 35 0 c35 0 35 0 35 45 0 42 2 45 28 45 78 0 172
60 172 110 0 36 -40 91 -76 106 -19 8 -68 14 -114 14 l-80 0 0 -160z m161 90
c31 -17 24 -57 -13 -80 -18 -11 -41 -20 -51 -20 -20 0 -37 37 -37 81 0 27 2
29 41 29 22 0 49 -5 60 -10z"/>
<path d="M3777 3143 c-9 -87 -9 -192 -1 -232 6 -27 10 -31 35 -29 28 2 29 4
29 54 l0 52 61 4 c56 4 65 8 95 41 47 51 46 88 -5 138 l-39 39 -84 0 -85 0 -6
-67z m153 -13 c11 -11 20 -26 20 -33 0 -23 -34 -46 -70 -49 l-35 -3 -3 53 -3
52 35 0 c23 0 44 -8 56 -20z"/>
<path d="M5492 3050 l3 -161 113 -2 112 -2 0 38 0 37 -81 0 -80 0 3 38 3 37
63 3 c58 3 62 4 62 27 0 24 -2 25 -70 25 l-70 0 0 30 0 30 80 0 80 0 0 30 0
30 -110 0 -110 0 2 -160z"/>
<path d="M5792 3048 l3 -163 105 0 105 0 0 35 0 35 -65 3 c-36 2 -68 8 -72 15
-4 7 -8 63 -8 125 l0 112 -35 0 -35 0 2 -162z"/>
<path d="M6438 3203 c-23 -6 -30 -61 -26 -197 l3 -110 28 -7 27 -7 0 54 0 54
35 0 c43 0 101 23 132 52 39 36 23 116 -29 152 -21 15 -126 21 -170 9z m113
-63 c12 -7 19 -21 19 -41 0 -24 -7 -32 -35 -46 -28 -13 -37 -14 -50 -3 -15 12
-21 80 -8 93 10 10 52 8 74 -3z"/>
<path d="M6706 3188 c-3 -13 -7 -87 -11 -165 l-5 -143 30 0 29 0 3 103 3 102
29 -58 c17 -32 34 -60 38 -63 17 -11 45 8 69 46 46 78 46 78 41 -20 -5 -99 1
-115 39 -105 24 6 24 7 27 165 l4 160 -41 0 c-32 0 -41 -4 -41 -17 0 -19 -60
-123 -72 -123 -4 0 -21 27 -39 61 -29 55 -57 79 -89 79 -5 0 -12 -10 -14 -22z"/>
<path d="M7142 3203 l-73 -4 3 -152 3 -152 104 -3 c57 -1 108 1 113 6 5 5 6
21 2 36 -6 25 -9 26 -80 26 l-74 0 0 35 0 35 58 0 c61 0 82 11 82 43 0 18 -5
19 -69 14 -65 -5 -69 -4 -75 16 -12 45 -10 47 74 47 l80 0 0 30 c0 28 -2 30
-37 28 -21 -1 -71 -4 -111 -5z"/>
<path d="M7362 3053 l3 -158 27 -3 27 -3 3 103 3 103 83 -102 c46 -57 87 -103
92 -103 4 0 16 -3 24 -6 15 -6 16 10 14 157 l-3 164 -34 3 -34 3 6 -98 6 -98
-20 25 c-89 108 -152 170 -175 170 l-25 0 3 -157z"/>
<path d="M7690 3180 c0 -29 2 -30 45 -30 l45 0 0 -92 c0 -51 3 -110 6 -130 6
-34 10 -38 35 -38 l29 0 0 130 0 130 51 0 c49 0 50 1 47 28 l-3 27 -127 3
-128 3 0 -31z"/>
</g>
</svg>
